<mxfile host="app.diagrams.net" modified="2022-01-11T03:45:32.098Z" agent="5.0 (Macintosh; Intel Mac OS X 10_13_6) AppleWebKit/537.36 (KHTML, like Gecko) Chrome/96.0.4664.110 Safari/537.36" etag="jO8XfPn4-jZjz7fi-zll" version="14.9.5" type="github">
  <diagram id="u_GM-djYjpOWDJ2LX-dx" name="第 1 页">
    <mxGraphModel dx="946" dy="614" grid="1" gridSize="10" guides="1" tooltips="1" connect="1" arrows="1" fold="1" page="1" pageScale="1" pageWidth="827" pageHeight="1169" math="0" shadow="0">
      <root>
        <mxCell id="0" />
        <mxCell id="1" parent="0" />
        <mxCell id="SuFAMhsTT2NtlefyZVd9-10" value="" style="endArrow=classic;html=1;strokeWidth=4;sketch=1;fillColor=#f5f5f5;strokeColor=#666666;" parent="1" edge="1">
          <mxGeometry width="50" height="50" relative="1" as="geometry">
            <mxPoint x="90" y="110" as="sourcePoint" />
            <mxPoint x="90" y="560" as="targetPoint" />
          </mxGeometry>
        </mxCell>
        <mxCell id="SuFAMhsTT2NtlefyZVd9-13" value="&lt;font style=&quot;font-size: 16px&quot;&gt;master&lt;/font&gt;" style="text;strokeColor=#666666;fillColor=#f5f5f5;html=1;fontSize=24;fontStyle=1;verticalAlign=middle;align=center;shadow=0;sketch=1;disableMultiStroke=0;disableMultiStrokeFill=0;fontFamily=Comic Sans MS;fontColor=#333333;" parent="1" vertex="1">
          <mxGeometry x="40" y="50" width="100" height="40" as="geometry" />
        </mxCell>
        <mxCell id="SuFAMhsTT2NtlefyZVd9-14" value="" style="endArrow=classic;html=1;strokeWidth=4;sketch=1;fillColor=#dae8fc;strokeColor=#6c8ebf;" parent="1" edge="1">
          <mxGeometry width="50" height="50" relative="1" as="geometry">
            <mxPoint x="220" y="110" as="sourcePoint" />
            <mxPoint x="220" y="560" as="targetPoint" />
          </mxGeometry>
        </mxCell>
        <mxCell id="SuFAMhsTT2NtlefyZVd9-15" value="&lt;font style=&quot;font-size: 16px&quot;&gt;release&lt;/font&gt;" style="text;strokeColor=#6c8ebf;fillColor=#dae8fc;html=1;fontSize=24;fontStyle=1;verticalAlign=middle;align=center;shadow=0;sketch=1;disableMultiStroke=0;disableMultiStrokeFill=0;fontFamily=Comic Sans MS;" parent="1" vertex="1">
          <mxGeometry x="170" y="50" width="100" height="40" as="geometry" />
        </mxCell>
        <mxCell id="SuFAMhsTT2NtlefyZVd9-16" value="" style="endArrow=classic;html=1;strokeWidth=4;sketch=1;fillColor=#d5e8d4;strokeColor=#82b366;" parent="1" edge="1">
          <mxGeometry width="50" height="50" relative="1" as="geometry">
            <mxPoint x="350" y="110" as="sourcePoint" />
            <mxPoint x="350" y="560" as="targetPoint" />
          </mxGeometry>
        </mxCell>
        <mxCell id="SuFAMhsTT2NtlefyZVd9-17" value="&lt;font style=&quot;font-size: 16px&quot;&gt;feature/xx1&lt;/font&gt;" style="text;strokeColor=#82b366;fillColor=#d5e8d4;html=1;fontSize=24;fontStyle=1;verticalAlign=middle;align=center;shadow=0;sketch=1;disableMultiStroke=0;disableMultiStrokeFill=0;fontFamily=Comic Sans MS;" parent="1" vertex="1">
          <mxGeometry x="300" y="50" width="100" height="40" as="geometry" />
        </mxCell>
        <mxCell id="SuFAMhsTT2NtlefyZVd9-18" value="" style="endArrow=classic;html=1;strokeWidth=4;sketch=1;fillColor=#ffe6cc;strokeColor=#d79b00;" parent="1" edge="1">
          <mxGeometry width="50" height="50" relative="1" as="geometry">
            <mxPoint x="480" y="110" as="sourcePoint" />
            <mxPoint x="480" y="560" as="targetPoint" />
          </mxGeometry>
        </mxCell>
        <mxCell id="SuFAMhsTT2NtlefyZVd9-19" value="&lt;span style=&quot;font-size: 16px&quot;&gt;feature/xx2&lt;/span&gt;" style="text;strokeColor=#d79b00;fillColor=#ffe6cc;html=1;fontSize=24;fontStyle=1;verticalAlign=middle;align=center;shadow=0;sketch=1;disableMultiStroke=0;disableMultiStrokeFill=0;fontFamily=Comic Sans MS;" parent="1" vertex="1">
          <mxGeometry x="430" y="50" width="100" height="40" as="geometry" />
        </mxCell>
        <mxCell id="SuFAMhsTT2NtlefyZVd9-23" value="" style="ellipse;shape=doubleEllipse;whiteSpace=wrap;html=1;aspect=fixed;shadow=0;sketch=1;disableMultiStroke=0;disableMultiStrokeFill=0;fontFamily=Comic Sans MS;strokeColor=#6c8ebf;fillStyle=auto;" parent="1" vertex="1">
          <mxGeometry x="205" y="260" width="30" height="30" as="geometry" />
        </mxCell>
        <mxCell id="SuFAMhsTT2NtlefyZVd9-24" value="" style="edgeStyle=elbowEdgeStyle;elbow=horizontal;endArrow=classic;html=1;fontFamily=Comic Sans MS;strokeColor=#666666;strokeWidth=2;fillColor=#f5f5f5;sketch=1;" parent="1" edge="1">
          <mxGeometry width="50" height="50" relative="1" as="geometry">
            <mxPoint x="90" y="135" as="sourcePoint" />
            <mxPoint x="220" y="135" as="targetPoint" />
          </mxGeometry>
        </mxCell>
        <mxCell id="SuFAMhsTT2NtlefyZVd9-27" value="" style="ellipse;shape=doubleEllipse;whiteSpace=wrap;html=1;aspect=fixed;shadow=0;sketch=1;disableMultiStroke=0;disableMultiStrokeFill=0;fontFamily=Comic Sans MS;strokeColor=#82b366;fillStyle=auto;" parent="1" vertex="1">
          <mxGeometry x="335" y="180" width="30" height="30" as="geometry" />
        </mxCell>
        <mxCell id="SuFAMhsTT2NtlefyZVd9-28" value="" style="edgeStyle=elbowEdgeStyle;elbow=horizontal;endArrow=classic;html=1;fontFamily=Comic Sans MS;strokeColor=#666666;strokeWidth=2;fillColor=#f5f5f5;sketch=1;" parent="1" edge="1">
          <mxGeometry width="50" height="50" relative="1" as="geometry">
            <mxPoint x="220" y="145" as="sourcePoint" />
            <mxPoint x="350" y="145" as="targetPoint" />
          </mxGeometry>
        </mxCell>
        <mxCell id="SuFAMhsTT2NtlefyZVd9-29" value="" style="edgeStyle=elbowEdgeStyle;elbow=horizontal;endArrow=classic;html=1;fontFamily=Comic Sans MS;strokeColor=#666666;strokeWidth=2;fillColor=#f5f5f5;sketch=1;" parent="1" edge="1">
          <mxGeometry width="50" height="50" relative="1" as="geometry">
            <mxPoint x="220" y="170" as="sourcePoint" />
            <mxPoint x="480" y="170" as="targetPoint" />
          </mxGeometry>
        </mxCell>
        <mxCell id="SuFAMhsTT2NtlefyZVd9-30" value="" style="ellipse;shape=doubleEllipse;whiteSpace=wrap;html=1;aspect=fixed;shadow=0;sketch=1;disableMultiStroke=0;disableMultiStrokeFill=0;fontFamily=Comic Sans MS;strokeColor=#82b366;fillStyle=auto;" parent="1" vertex="1">
          <mxGeometry x="335" y="220" width="30" height="30" as="geometry" />
        </mxCell>
        <mxCell id="SuFAMhsTT2NtlefyZVd9-32" style="edgeStyle=none;sketch=1;orthogonalLoop=1;jettySize=auto;html=1;exitX=0;exitY=0.5;exitDx=0;exitDy=0;entryX=1;entryY=0.5;entryDx=0;entryDy=0;fontFamily=Comic Sans MS;strokeColor=#666666;strokeWidth=2;fillColor=#f5f5f5;" parent="1" source="SuFAMhsTT2NtlefyZVd9-31" target="SuFAMhsTT2NtlefyZVd9-23" edge="1">
          <mxGeometry relative="1" as="geometry" />
        </mxCell>
        <mxCell id="SuFAMhsTT2NtlefyZVd9-31" value="" style="ellipse;shape=doubleEllipse;whiteSpace=wrap;html=1;aspect=fixed;shadow=0;sketch=1;disableMultiStroke=0;disableMultiStrokeFill=0;fontFamily=Comic Sans MS;strokeColor=#82b366;fillStyle=auto;" parent="1" vertex="1">
          <mxGeometry x="335" y="260" width="30" height="30" as="geometry" />
        </mxCell>
        <mxCell id="SuFAMhsTT2NtlefyZVd9-33" value="" style="ellipse;shape=doubleEllipse;whiteSpace=wrap;html=1;aspect=fixed;shadow=0;sketch=1;disableMultiStroke=0;disableMultiStrokeFill=0;fontFamily=Comic Sans MS;strokeColor=#d79b00;fillStyle=auto;" parent="1" vertex="1">
          <mxGeometry x="465" y="180" width="30" height="30" as="geometry" />
        </mxCell>
        <mxCell id="SuFAMhsTT2NtlefyZVd9-34" value="" style="ellipse;shape=doubleEllipse;whiteSpace=wrap;html=1;aspect=fixed;shadow=0;sketch=1;disableMultiStroke=0;disableMultiStrokeFill=0;fontFamily=Comic Sans MS;strokeColor=#d79b00;fillStyle=auto;" parent="1" vertex="1">
          <mxGeometry x="465" y="260" width="30" height="30" as="geometry" />
        </mxCell>
        <mxCell id="SuFAMhsTT2NtlefyZVd9-38" style="edgeStyle=none;sketch=1;orthogonalLoop=1;jettySize=auto;html=1;exitX=0;exitY=0.5;exitDx=0;exitDy=0;entryX=1;entryY=0.5;entryDx=0;entryDy=0;fontFamily=Comic Sans MS;strokeColor=#666666;strokeWidth=2;fillColor=#f5f5f5;" parent="1" source="SuFAMhsTT2NtlefyZVd9-35" target="SuFAMhsTT2NtlefyZVd9-37" edge="1">
          <mxGeometry relative="1" as="geometry" />
        </mxCell>
        <mxCell id="SuFAMhsTT2NtlefyZVd9-35" value="" style="ellipse;shape=doubleEllipse;whiteSpace=wrap;html=1;aspect=fixed;shadow=0;sketch=1;disableMultiStroke=0;disableMultiStrokeFill=0;fontFamily=Comic Sans MS;strokeColor=#d79b00;fillStyle=auto;" parent="1" vertex="1">
          <mxGeometry x="465" y="350" width="30" height="30" as="geometry" />
        </mxCell>
        <mxCell id="SuFAMhsTT2NtlefyZVd9-36" value="" style="edgeStyle=elbowEdgeStyle;elbow=horizontal;endArrow=classic;html=1;fontFamily=Comic Sans MS;strokeColor=#666666;strokeWidth=2;fillColor=#f5f5f5;sketch=1;" parent="1" edge="1">
          <mxGeometry width="50" height="50" relative="1" as="geometry">
            <mxPoint x="220" y="320" as="sourcePoint" />
            <mxPoint x="480" y="320" as="targetPoint" />
          </mxGeometry>
        </mxCell>
        <mxCell id="SuFAMhsTT2NtlefyZVd9-37" value="" style="ellipse;shape=doubleEllipse;whiteSpace=wrap;html=1;aspect=fixed;shadow=0;sketch=1;disableMultiStroke=0;disableMultiStrokeFill=0;fontFamily=Comic Sans MS;strokeColor=#6c8ebf;fillStyle=auto;" parent="1" vertex="1">
          <mxGeometry x="205" y="350" width="30" height="30" as="geometry" />
        </mxCell>
        <mxCell id="SuFAMhsTT2NtlefyZVd9-39" style="edgeStyle=none;sketch=1;orthogonalLoop=1;jettySize=auto;html=1;exitX=0;exitY=0.5;exitDx=0;exitDy=0;fontFamily=Comic Sans MS;strokeColor=#666666;strokeWidth=2;fillColor=#f5f5f5;entryX=1;entryY=0.5;entryDx=0;entryDy=0;" parent="1" target="SuFAMhsTT2NtlefyZVd9-40" edge="1">
          <mxGeometry relative="1" as="geometry">
            <mxPoint x="220" y="420" as="sourcePoint" />
            <mxPoint x="110" y="420" as="targetPoint" />
          </mxGeometry>
        </mxCell>
        <mxCell id="SuFAMhsTT2NtlefyZVd9-40" value="" style="ellipse;shape=doubleEllipse;whiteSpace=wrap;html=1;aspect=fixed;shadow=0;sketch=1;disableMultiStroke=0;disableMultiStrokeFill=0;fontFamily=Comic Sans MS;strokeColor=#666666;fillStyle=auto;fontColor=#333333;" parent="1" vertex="1">
          <mxGeometry x="75" y="405" width="30" height="30" as="geometry" />
        </mxCell>
        <mxCell id="SHEthuqOXB6lUlGpZ5xi-1" value="" style="endArrow=classic;html=1;strokeWidth=4;sketch=1;fillColor=#ffe6cc;strokeColor=#d79b00;" edge="1" parent="1">
          <mxGeometry width="50" height="50" relative="1" as="geometry">
            <mxPoint x="610" y="110" as="sourcePoint" />
            <mxPoint x="610" y="560" as="targetPoint" />
          </mxGeometry>
        </mxCell>
        <mxCell id="SHEthuqOXB6lUlGpZ5xi-2" value="&lt;span style=&quot;font-size: 16px&quot;&gt;bugfix/xxx&lt;/span&gt;" style="text;strokeColor=#d79b00;fillColor=#ffe6cc;html=1;fontSize=24;fontStyle=1;verticalAlign=middle;align=center;shadow=0;sketch=1;disableMultiStroke=0;disableMultiStrokeFill=0;fontFamily=Comic Sans MS;" vertex="1" parent="1">
          <mxGeometry x="560" y="50" width="100" height="40" as="geometry" />
        </mxCell>
        <mxCell id="SHEthuqOXB6lUlGpZ5xi-5" value="" style="ellipse;shape=doubleEllipse;whiteSpace=wrap;html=1;aspect=fixed;shadow=0;sketch=1;disableMultiStroke=0;disableMultiStrokeFill=0;fontFamily=Comic Sans MS;strokeColor=#d79b00;fillStyle=auto;" vertex="1" parent="1">
          <mxGeometry x="595" y="470" width="30" height="30" as="geometry" />
        </mxCell>
        <mxCell id="SHEthuqOXB6lUlGpZ5xi-6" value="" style="edgeStyle=elbowEdgeStyle;elbow=horizontal;endArrow=classic;html=1;fontFamily=Comic Sans MS;strokeColor=#666666;strokeWidth=2;fillColor=#f5f5f5;sketch=1;" edge="1" parent="1">
          <mxGeometry width="50" height="50" relative="1" as="geometry">
            <mxPoint x="90" y="460" as="sourcePoint" />
            <mxPoint x="610" y="460" as="targetPoint" />
          </mxGeometry>
        </mxCell>
        <mxCell id="SHEthuqOXB6lUlGpZ5xi-7" style="edgeStyle=none;sketch=1;orthogonalLoop=1;jettySize=auto;html=1;exitX=0;exitY=0.5;exitDx=0;exitDy=0;fontFamily=Comic Sans MS;strokeColor=#666666;strokeWidth=2;fillColor=#f5f5f5;" edge="1" parent="1">
          <mxGeometry relative="1" as="geometry">
            <mxPoint x="610" y="513" as="sourcePoint" />
            <mxPoint x="90" y="513" as="targetPoint" />
          </mxGeometry>
        </mxCell>
        <mxCell id="SHEthuqOXB6lUlGpZ5xi-8" value="" style="edgeStyle=elbowEdgeStyle;elbow=horizontal;endArrow=classic;html=1;fontFamily=Comic Sans MS;strokeColor=#666666;strokeWidth=2;fillColor=#f5f5f5;sketch=1;" edge="1" parent="1">
          <mxGeometry width="50" height="50" relative="1" as="geometry">
            <mxPoint x="90" y="396" as="sourcePoint" />
            <mxPoint x="220" y="396" as="targetPoint" />
          </mxGeometry>
        </mxCell>
      </root>
    </mxGraphModel>
  </diagram>
</mxfile>
